<svg width="30" height="30" viewBox="0 0 30 30" fill="none" xmlns="http://www.w3.org/2000/svg">
<path d="M6.69643 29.933H0.46875V9.91071H6.69643V29.933ZM3.54911 7.23214C1.60714 7.23214 0 5.55804 0 3.54911C0 1.60714 1.60714 0 3.54911 0C5.55804 0 7.16518 1.60714 7.16518 3.54911C7.16518 5.55804 5.55804 7.23214 3.54911 7.23214ZM29.933 29.933H23.7723V20.2232C23.7723 17.8795 23.7054 14.933 20.4911 14.933C17.2768 14.933 16.808 17.4107 16.808 20.0223V29.933H10.5804V9.91071H16.5402V12.6563H16.6071C17.4777 11.1161 19.4866 9.44196 22.5 9.44196C28.7946 9.44196 30 13.5938 30 18.9509V29.933H29.933Z" fill="white"/>
</svg>
