<svg width="34" height="35" viewBox="0 0 34 35" fill="none" xmlns="http://www.w3.org/2000/svg">
<rect y="0.349976" width="34" height="34" rx="17" fill="white"/>
<path d="M17.1 13.8312C19.0534 13.8312 20.6657 15.4435 20.6657 17.3969C20.6657 19.3812 19.0534 20.9625 17.1 20.9625C15.1156 20.9625 13.5343 19.3812 13.5343 17.3969C13.5343 15.4435 15.1156 13.8312 17.1 13.8312ZM17.1 19.7223C18.3712 19.7223 19.3944 18.6991 19.3944 17.3969C19.3944 16.1256 18.3712 15.1024 17.1 15.1024C15.7978 15.1024 14.7746 16.1256 14.7746 17.3969C14.7746 18.6991 15.8288 19.7223 17.1 19.7223ZM21.6269 13.7072C21.6269 14.1722 21.2548 14.5443 20.7897 14.5443C20.3246 14.5443 19.9525 14.1722 19.9525 13.7072C19.9525 13.2421 20.3246 12.87 20.7897 12.87C21.2548 12.87 21.6269 13.2421 21.6269 13.7072ZM23.9833 14.5443C24.0453 15.6915 24.0453 19.1332 23.9833 20.2804C23.9213 21.3966 23.6732 22.3578 22.8671 23.1949C22.0609 24.0011 21.0687 24.2491 19.9525 24.3112C18.8053 24.3732 15.3637 24.3732 14.2165 24.3112C13.1002 24.2491 12.1391 24.0011 11.3019 23.1949C10.4958 22.3578 10.2477 21.3966 10.1857 20.2804C10.1237 19.1332 10.1237 15.6915 10.1857 14.5443C10.2477 13.4281 10.4958 12.4359 11.3019 11.6298C12.1391 10.8236 13.1002 10.5756 14.2165 10.5135C15.3637 10.4515 18.8053 10.4515 19.9525 10.5135C21.0687 10.5756 22.0609 10.8236 22.8671 11.6298C23.6732 12.4359 23.9213 13.4281 23.9833 14.5443ZM22.495 21.4896C22.8671 20.5905 22.7741 18.42 22.7741 17.3969C22.7741 16.4047 22.8671 14.2343 22.495 13.3041C22.247 12.715 21.7819 12.2189 21.1928 12.0018C20.2626 11.6298 18.0922 11.7228 17.1 11.7228C16.0768 11.7228 13.9064 11.6298 13.0072 12.0018C12.3871 12.2499 11.922 12.715 11.674 13.3041C11.3019 14.2343 11.3949 16.4047 11.3949 17.3969C11.3949 18.42 11.3019 20.5905 11.674 21.4896C11.922 22.1097 12.3871 22.5748 13.0072 22.8229C13.9064 23.1949 16.0768 23.1019 17.1 23.1019C18.0922 23.1019 20.2626 23.1949 21.1928 22.8229C21.7819 22.5748 22.278 22.1097 22.495 21.4896Z" fill="#333333"/>
</svg>
