<svg width="34" height="34" viewBox="0 0 34 34" fill="none" xmlns="http://www.w3.org/2000/svg">
<rect width="34" height="34" rx="17" fill="white"/>
<path d="M13.225 23H10.3187V13.6562H13.225V23ZM11.7562 12.4062C10.85 12.4062 10.1 11.625 10.1 10.6875C10.1 9.78125 10.85 9.03125 11.7562 9.03125C12.6937 9.03125 13.4437 9.78125 13.4437 10.6875C13.4437 11.625 12.6937 12.4062 11.7562 12.4062ZM24.0687 23H21.1937V18.4688C21.1937 17.375 21.1625 16 19.6625 16C18.1625 16 17.9437 17.1562 17.9437 18.375V23H15.0375V13.6562H17.8187V14.9375H17.85C18.2562 14.2188 19.1937 13.4375 20.6 13.4375C23.5375 13.4375 24.1 15.375 24.1 17.875V23H24.0687Z" fill="#333333"/>
</svg>
