<svg width="34" height="35" viewBox="0 0 34 35" fill="none" xmlns="http://www.w3.org/2000/svg">
<rect y="0.349976" width="34" height="34" rx="17" fill="white"/>
<path d="M21.6002 10.8204C20.9167 10.0399 20.5401 9.03777 20.5402 8.00037H17.4502V20.4004C17.4268 21.0716 17.1437 21.7074 16.6605 22.1739C16.1773 22.6403 15.5318 22.9008 14.8602 22.9004C13.4402 22.9004 12.2602 21.7404 12.2602 20.3004C12.2602 18.5804 13.9202 17.2904 15.6302 17.8204V14.6604C12.1802 14.2004 9.16016 16.8804 9.16016 20.3004C9.16016 23.6304 11.9202 26.0004 14.8502 26.0004C17.9902 26.0004 20.5402 23.4504 20.5402 20.3004V14.0104C21.7932 14.9102 23.2975 15.393 24.8402 15.3904V12.3004C24.8402 12.3004 22.9602 12.3904 21.6002 10.8204Z" fill="#333333"/>
</svg>
