<svg width="34" height="35" viewBox="0 0 34 35" fill="none" xmlns="http://www.w3.org/2000/svg">
<rect y="0.349976" width="34" height="34" rx="17" fill="white"/>
<path d="M25.2563 13.2562C25.6313 14.5687 25.6313 17.3812 25.6313 17.3812C25.6313 17.3812 25.6313 20.1625 25.2563 21.5062C25.0688 22.2562 24.475 22.8187 23.7563 23.0062C22.4125 23.35 17.1 23.35 17.1 23.35C17.1 23.35 11.7563 23.35 10.4125 23.0062C9.69375 22.8187 9.1 22.2562 8.9125 21.5062C8.5375 20.1625 8.5375 17.3812 8.5375 17.3812C8.5375 17.3812 8.5375 14.5687 8.9125 13.2562C9.1 12.5062 9.69375 11.9125 10.4125 11.725C11.7563 11.35 17.1 11.35 17.1 11.35C17.1 11.35 22.4125 11.35 23.7563 11.725C24.475 11.9125 25.0688 12.5062 25.2563 13.2562ZM15.35 19.9125L19.7875 17.3812L15.35 14.85V19.9125Z" fill="#333333"/>
</svg>
